# xmcd
#
# Track frame offsets:
#	150
#	14818
#	25761
#	39772
#	47804
#	65559
#	90287
#	102733
#	111970
#	127651
#	143455
#	162413
#	167929
#	173228
#	194030
#	207054
#	221152
#	227566
#	233731
#	262229
#	269217
#	288064
#	307328
#	325150
#	327206
#	350847
#
# Disc length: 4782 seconds
#
# Revision: 0
# Processed by: cddbd v1.5.1PL2 Copyright (c) Steve Scherf et al.
# Submitted via: audiograbber 1.83.01
#
DISCID=8e12ac1a
DTITLE=Pink Floyd - The Wall
DYEAR=1900
DGENRE=
TTITLE0=In the flesh
TTITLE1=The thin ice
TTITLE2=Another brick in the wall (par
TTITLE3=The happiest days of our lives
TTITLE4=Another brick in the wall (par
TTITLE5=Mother
TTITLE6=Goodbye blue sky
TTITLE7=Empty spaces
TTITLE8=Young lust
TTITLE9=One of my turns
TTITLE10=Don't leave me now
TTITLE11=Another brick in the wall (par
TTITLE12=Goodbye cruel world
TTITLE13=Hey you
TTITLE14=Is there anybody out there
TTITLE15=Nobody home
TTITLE16=Vera
TTITLE17=Bring the boys back home
TTITLE18=Comfortably numb
TTITLE19=The show must go on
TTITLE20=In the flesh
TTITLE21=Run like hell
TTITLE22=Waiting for the worms
TTITLE23=Stop
TTITLE24=The trial
TTITLE25=Outside the wall
EXTD=
EXTT0=
EXTT1=
EXTT2=
EXTT3=
EXTT4=
EXTT5=
EXTT6=
EXTT7=
EXTT8=
EXTT9=
EXTT10=
EXTT11=
EXTT12=
EXTT13=
EXTT14=
EXTT15=
EXTT16=
EXTT17=
EXTT18=
EXTT19=
EXTT20=
EXTT21=
EXTT22=
EXTT23=
EXTT24=
EXTT25=
PLAYORDER=
